<?xml version="1.0" standalone="no"?>
<!DOCTYPE svg PUBLIC "-//W3C//DTD SVG 20010904//EN"
 "http://www.w3.org/TR/2001/REC-SVG-20010904/DTD/svg10.dtd">
<svg version="1.0" xmlns="http://www.w3.org/2000/svg"
 width="640.000000pt" height="768.000000pt" viewBox="0 0 640.000000 768.000000"
 preserveAspectRatio="xMidYMid meet">

<g transform="translate(0.000000,768.000000) scale(0.100000,-0.100000)"
fill="#000000" stroke="none">
<path d="M3125 7609 c-16 -33 -36 -64 -45 -69 -8 -4 -43 -11 -77 -15 -35 -4
-63 -10 -63 -14 0 -4 23 -29 51 -56 l51 -50 -6 -55 c-4 -30 -9 -65 -13 -78 -5
-23 -4 -23 66 12 l71 36 70 -35 69 -35 -5 28 c-2 15 -9 49 -13 77 l-9 50 54
50 c30 27 54 53 54 57 0 3 -28 9 -62 13 -35 4 -70 11 -78 15 -9 5 -29 36 -45
69 -16 34 -32 61 -35 61 -3 0 -19 -27 -35 -61z"/>
<path d="M1609 7248 c-17 -35 -33 -64 -34 -66 -1 -2 -34 -8 -71 -14 -38 -5
-71 -12 -73 -14 -3 -3 19 -29 48 -58 l53 -54 -11 -64 c-6 -36 -11 -70 -11 -77
0 -7 28 3 68 25 l69 38 66 -37 67 -37 0 25 c0 13 -5 47 -11 76 l-11 51 57 58
57 57 -59 7 c-96 12 -98 13 -129 77 -15 34 -32 63 -36 65 -4 3 -22 -24 -39
-58z"/>
<path d="M4515 7249 c-16 -33 -36 -64 -45 -69 -8 -4 -43 -11 -77 -15 -35 -4
-63 -8 -63 -10 0 -2 25 -27 55 -57 l54 -53 -9 -50 c-5 -27 -12 -62 -14 -77
l-5 -28 70 36 71 35 71 -37 70 -37 -7 34 c-4 19 -10 55 -13 80 -5 45 -4 47 46
94 28 26 51 51 51 55 0 4 -26 11 -57 15 -86 11 -96 17 -127 84 -17 33 -33 61
-36 61 -3 0 -19 -27 -35 -61z"/>
<path d="M2915 7144 c-27 -3 -104 -11 -170 -20 -1286 -161 -2333 -1103 -2635
-2369 -61 -256 -74 -380 -74 -715 0 -262 3 -324 21 -440 76 -480 230 -883 487
-1275 232 -353 595 -705 961 -930 826 -510 1851 -603 2757 -250 723 282 1322
833 1663 1530 204 416 303 828 312 1300 7 335 -24 596 -108 899 -153 554 -491
1100 -914 1476 -483 430 -1044 687 -1685 775 -111 15 -511 27 -615 19z m665
-103 c800 -124 1493 -537 1979 -1181 576 -763 754 -1762 480 -2690 -233 -786
-803 -1465 -1543 -1837 -454 -228 -939 -335 -1451 -320 -923 27 -1773 466
-2333 1206 -203 267 -379 612 -476 933 -196 648 -175 1315 60 1958 92 249 289
596 463 815 514 644 1244 1044 2071 1134 151 17 596 6 750 -18z"/>
<path d="M3012 6749 c-424 -36 -748 -202 -1025 -523 -67 -78 -69 -62 -5 49 50
86 204 242 302 305 38 24 63 46 57 48 -19 6 -180 -17 -270 -39 -186 -46 -332
-129 -453 -258 -126 -134 -197 -285 -220 -465 -10 -83 -10 -114 4 -209 16
-108 67 -289 92 -322 10 -14 20 -13 102 19 335 129 731 200 1324 236 359 22
716 7 885 -37 315 -81 563 -244 724 -473 59 -84 223 -406 267 -524 16 -42 32
-76 35 -76 16 0 41 186 46 330 8 262 -30 440 -147 675 -58 117 -132 232 -224
344 -9 12 -8 12 9 3 30 -16 105 -99 144 -160 18 -29 35 -51 38 -48 8 7 -28
129 -56 190 -60 131 -265 367 -424 487 -193 146 -422 252 -679 315 -38 9 -68
20 -68 25 0 12 14 11 165 -10 72 -10 131 -17 133 -16 7 6 -89 44 -184 75 -167
53 -381 76 -572 59z m-243 -312 c-2 -2 -103 -73 -223 -157 -256 -179 -326
-237 -421 -351 -38 -45 -82 -96 -97 -113 l-28 -31 16 55 c69 242 381 514 676
589 63 16 92 19 77 8z m783 -126 c227 -40 479 -141 583 -236 l50 -45 -55 21
c-237 93 -422 146 -630 181 -134 23 -451 31 -615 16 l-80 -8 48 25 c53 28 136
52 230 65 95 14 337 4 469 -19z m-1778 -38 c-95 -220 -162 -515 -165 -726 l-1
-72 -20 45 c-27 58 -36 210 -18 318 25 159 90 320 169 420 23 29 44 52 46 52
3 0 -2 -17 -11 -37z m1818 -373 c491 -48 846 -279 1039 -675 27 -55 49 -104
49 -110 0 -5 -27 32 -60 83 -76 118 -221 268 -326 338 -300 199 -751 297
-1227 265 -100 -6 -285 -22 -412 -35 -126 -13 -232 -22 -234 -20 -13 12 124
44 464 110 145 27 229 38 355 43 244 11 247 11 352 1z"/>
<path d="M2513 5424 c6 -53 255 -952 362 -1314 116 -390 224 -685 257 -706 7
-5 43 -11 80 -15 37 -3 78 -13 91 -22 14 -9 89 -121 168 -249 l144 -233 0
-110 c1 -83 5 -120 19 -153 17 -39 17 -44 2 -61 -23 -26 -20 -51 14 -104 31
-50 35 -52 73 -38 19 7 33 3 73 -24 70 -46 115 -58 196 -53 54 4 79 12 119 37
28 17 54 31 58 31 18 0 110 -109 145 -173 41 -72 58 -87 104 -87 55 0 90 68
62 121 -6 10 -37 32 -68 48 -60 31 -129 96 -157 151 -14 27 -15 40 -6 76 16
62 14 103 -9 177 -40 128 -166 223 -330 248 -126 20 -150 28 -197 72 -53 49
-147 172 -199 259 -20 35 -247 536 -505 1113 -469 1051 -512 1140 -496 1009z
m686 -1710 c26 -33 26 -55 3 -85 -22 -26 -75 -31 -97 -8 -26 26 -28 63 -5 92
29 36 71 36 99 1z m799 -853 c80 -41 152 -152 152 -235 0 -45 -23 -101 -54
-132 -121 -121 -341 1 -354 196 -4 68 26 134 77 167 44 30 126 31 179 4z"/>
<path d="M3750 5443 c-86 -185 -560 -1258 -560 -1269 0 -24 143 -335 150 -327
21 24 452 1556 448 1591 -4 36 -22 38 -38 5z"/>
<path d="M366 5008 c-23 -23 -42 -61 -64 -127 -18 -52 -30 -96 -28 -99 12 -11
412 -130 418 -124 4 4 9 18 10 30 3 21 -5 26 -70 47 -41 13 -76 25 -78 28 -2
2 5 30 16 62 11 32 20 73 20 92 0 76 -55 123 -145 123 -40 0 -52 -5 -79 -32z
m127 -39 c30 -16 37 -28 37 -65 0 -33 -28 -124 -38 -124 -10 0 -133 39 -142
45 -14 9 30 124 53 140 26 18 60 19 90 4z"/>
<path d="M1983 4870 c-36 -14 -51 -50 -68 -151 -63 -397 -26 -943 96 -1375 39
-141 60 -165 109 -126 l22 18 -26 209 c-55 431 -72 859 -44 1125 6 63 12 152
12 198 1 72 -2 86 -18 98 -22 16 -50 17 -83 4z"/>
<path d="M5777 4800 c-109 -26 -200 -50 -203 -53 -4 -3 4 -48 16 -99 19 -75
30 -99 56 -125 28 -29 39 -33 84 -33 43 0 56 5 79 28 15 15 30 33 32 41 4 11
11 11 37 -3 64 -33 144 7 157 78 6 31 -5 101 -32 199 -6 21 8 23 -226 -33z
m192 -67 c23 -81 6 -123 -48 -123 -41 0 -60 20 -75 78 -16 58 -15 58 49 75 52
13 64 8 74 -30z m-185 -20 c26 -88 18 -135 -24 -153 -61 -25 -100 7 -115 97
l-7 42 44 11 c24 6 48 13 53 15 24 9 44 4 49 -12z"/>
<path d="M3940 4793 c-36 -2 -80 -5 -99 -9 -64 -11 -20 -17 104 -15 84 2 125
-1 125 -8 0 -7 -44 -11 -130 -11 -80 0 -130 -4 -130 -10 0 -6 52 -11 133 -12
l132 -2 -125 -3 c-173 -5 -182 -23 -10 -23 172 0 163 -18 -10 -23 l-125 -3
133 -2 c80 -1 132 -6 132 -12 0 -6 -50 -10 -130 -10 -85 0 -130 -4 -130 -11 0
-7 44 -9 130 -7 72 2 130 0 130 -4 0 -5 -56 -8 -124 -8 -73 0 -127 -4 -131
-10 -4 -6 40 -10 124 -10 175 0 173 -18 -1 -23 l-133 -3 133 -2 c80 -1 132 -6
132 -12 0 -6 -50 -10 -130 -10 -80 0 -130 -4 -130 -10 0 -6 52 -11 133 -12
l132 -2 -127 -3 c-74 -2 -128 -8 -128 -13 0 -6 53 -11 128 -11 144 -2 138 -6
-28 -18 l-115 -8 133 -2 c80 0 132 -5 132 -11 0 -6 -50 -10 -130 -10 -80 0
-130 -4 -130 -10 0 -6 54 -11 138 -12 l137 -2 -130 -3 c-176 -5 -190 -23 -17
-23 175 0 175 -18 0 -23 l-133 -3 133 -2 c80 -1 132 -6 132 -12 0 -6 -50 -10
-131 -10 -95 0 -128 -3 -123 -11 5 -8 44 -10 131 -6 68 3 126 1 129 -4 3 -5
-51 -9 -125 -9 -76 0 -132 -4 -136 -10 -4 -6 43 -10 132 -11 155 -2 151 -6
-17 -18 l-115 -8 133 -2 c86 0 131 -5 127 -11 -4 -6 -58 -10 -131 -10 -76 0
-124 -4 -124 -10 0 -6 52 -11 133 -12 l132 -2 -130 -3 c-180 -5 -188 -23 -10
-23 175 0 171 -18 -5 -23 l-125 -3 133 -2 c80 -1 132 -6 132 -12 0 -6 -50 -10
-130 -10 -87 0 -130 -4 -130 -11 0 -7 40 -10 125 -8 68 2 127 0 131 -4 4 -4
-52 -7 -124 -7 -81 0 -132 -4 -132 -10 0 -6 52 -11 133 -12 l132 -1 -127 -7
c-70 -3 -131 -9 -134 -13 -4 -4 52 -7 124 -7 81 0 132 -4 132 -10 0 -6 -50
-10 -130 -10 -91 0 -130 -3 -130 -11 0 -9 35 -10 125 -7 69 3 128 2 131 -3 3
-5 -51 -9 -125 -9 -81 0 -131 -4 -131 -10 0 -6 51 -10 132 -10 72 0 128 -3
125 -6 -3 -4 -64 -10 -134 -14 l-128 -7 133 -1 c80 -1 132 -6 132 -12 0 -6
-50 -10 -130 -10 -87 0 -130 -4 -130 -11 0 -7 40 -10 125 -8 68 2 127 0 131
-4 4 -4 -52 -7 -124 -7 -81 0 -132 -4 -132 -10 0 -6 52 -11 133 -12 l132 -2
-125 -3 c-172 -5 -182 -23 -12 -23 81 0 132 -4 132 -10 0 -6 -50 -10 -130 -10
-174 0 -172 -18 3 -23 l132 -3 -132 -2 c-81 -1 -133 -6 -133 -12 0 -6 52 -11
133 -11 149 -2 144 -6 -23 -18 l-115 -8 133 -2 c80 0 132 -5 132 -11 0 -6 -50
-10 -130 -10 -89 0 -130 -4 -130 -11 0 -8 38 -10 130 -7 72 2 130 0 130 -4 0
-4 -58 -8 -130 -8 -80 0 -130 -4 -130 -10 0 -6 52 -11 133 -12 l132 -2 -125
-3 c-174 -5 -181 -23 -9 -24 84 0 127 -4 114 -9 -11 -5 -71 -9 -132 -9 -160
-1 -144 -20 20 -24 l132 -3 -132 -2 c-81 -1 -133 -6 -133 -12 0 -6 52 -11 133
-12 l132 -2 -110 -3 c-200 -5 -215 -25 -18 -25 81 0 119 -3 103 -8 -14 -4 -73
-8 -132 -9 -72 -1 -108 -5 -108 -12 0 -8 38 -10 130 -7 72 2 130 0 130 -4 0
-4 -58 -8 -130 -8 -80 0 -130 -4 -130 -10 0 -6 52 -11 133 -12 l132 -2 -127
-5 c-69 -3 -130 -9 -134 -13 -4 -5 53 -9 127 -9 104 -1 123 -3 84 -9 -27 -5
-88 -9 -134 -9 -62 -1 -82 -4 -74 -12 7 -7 52 -10 132 -8 67 2 121 1 121 -3 0
-5 -55 -8 -122 -8 -67 0 -118 -3 -115 -7 4 -3 62 -9 130 -13 l122 -7 -120 -2
c-173 -3 -191 -19 -25 -22 113 -2 125 -3 75 -9 -33 -4 -93 -8 -133 -9 -52 -1
-71 -4 -66 -12 5 -9 42 -10 130 -5 82 4 124 3 124 -4 0 -6 -49 -10 -130 -10
-80 0 -130 -4 -130 -10 0 -6 52 -11 133 -12 l132 -1 -118 -7 c-64 -4 -120 -10
-124 -13 -3 -4 45 -8 108 -8 133 -2 126 -5 -23 -14 -61 -4 -106 -11 -102 -16
3 -5 57 -6 130 -3 91 5 124 4 124 -4 0 -9 -37 -12 -125 -12 -69 0 -125 -4
-125 -8 0 -13 317 -24 340 -12 41 22 42 48 35 798 -4 400 -11 731 -16 748 -16
53 -38 57 -249 47z m242 -778 c8 -676 7 -769 -10 -779 -4 -2 -8 316 -10 707
-1 392 -4 737 -7 767 -5 47 -4 52 7 35 10 -15 15 -186 20 -730z"/>
<path d="M319 4621 c-77 -25 -125 -99 -116 -178 11 -103 107 -165 257 -166 78
-1 138 26 168 75 59 98 24 201 -85 250 -47 21 -183 33 -224 19z m185 -72 c92
-25 124 -107 67 -171 -29 -33 -30 -33 -118 -32 -126 0 -193 40 -193 114 0 96
93 129 244 89z"/>
<path d="M2548 4573 c-8 -10 -88 -165 -176 -344 -112 -225 -162 -337 -162
-360 0 -19 7 -55 17 -80 l16 -47 -36 -73 c-20 -41 -46 -91 -58 -112 -16 -28
-22 -55 -21 -98 2 -128 -26 -176 469 795 98 192 120 243 110 253 -15 15 -127
83 -137 83 -4 0 -14 -8 -22 -17z m142 -86 c0 -12 -326 -655 -342 -674 -8 -10
-16 -9 -39 4 -16 10 -29 22 -29 27 0 6 5 5 12 -2 33 -33 45 -15 207 305 89
174 161 327 161 339 0 17 4 22 15 18 8 -4 15 -11 15 -17z"/>
<path d="M5878 4435 c-12 -12 6 -62 25 -70 11 -6 25 -23 30 -38 12 -36 -13
-77 -47 -77 -20 0 -24 6 -30 48 -8 59 -38 109 -73 123 -92 35 -170 -61 -124
-153 13 -28 17 -44 10 -49 -17 -10 -7 -65 11 -60 8 2 66 10 128 17 61 7 121
18 132 24 52 28 65 132 23 188 -19 25 -76 56 -85 47z m-93 -85 c9 -10 20 -39
22 -63 5 -42 4 -44 -23 -50 -37 -7 -52 0 -69 34 -21 39 -19 65 7 83 29 21 41
20 63 -4z"/>
<path d="M323 4183 l-153 -4 0 -29 0 -30 95 0 95 0 0 -105 0 -105 -95 0 -95 0
0 -30 0 -30 226 0 225 0 -3 33 -3 32 -98 0 -97 0 0 102 0 102 98 3 97 3 0 30
0 30 -70 0 c-38 1 -139 -1 -222 -2z"/>
<path d="M5667 4094 c-4 -4 -7 -17 -7 -29 0 -21 5 -22 123 -29 134 -8 157 -18
157 -68 0 -24 4 -28 30 -28 26 0 30 4 30 26 0 14 -5 35 -11 46 -8 15 -8 22 1
28 6 4 10 18 8 31 l-3 24 -161 3 c-88 1 -163 -1 -167 -4z"/>
<path d="M5660 3876 c0 -13 6 -26 13 -29 9 -3 7 -10 -6 -25 -28 -31 -33 -94
-11 -131 34 -57 151 -93 231 -72 59 16 93 60 93 120 0 26 -6 53 -12 60 -11 10
3 11 69 6 l82 -7 7 26 c3 15 5 28 3 30 -5 4 -406 46 -441 46 -23 0 -28 -4 -28
-24z m253 -77 c23 -28 22 -74 -3 -99 -39 -39 -186 -21 -204 25 -10 28 -7 60
11 84 15 23 20 23 97 18 66 -5 84 -10 99 -28z"/>
<path d="M493 3783 c-43 -8 -78 -64 -96 -153 -9 -45 -22 -89 -28 -96 -19 -23
-76 -17 -93 8 -23 33 -21 103 4 128 11 11 26 20 33 20 9 0 12 10 9 30 -12 83
-122 -18 -122 -112 1 -76 67 -158 128 -158 67 0 111 58 130 169 13 73 33 101
72 101 38 0 62 -32 68 -89 4 -50 -6 -69 -52 -96 -13 -8 -16 -17 -11 -38 6 -22
11 -26 29 -21 112 34 121 246 12 298 -34 16 -42 17 -83 9z"/>
<path d="M2925 3595 c-15 -33 -45 -100 -67 -150 -51 -116 -190 -326 -260 -392
-58 -54 -75 -61 -208 -82 -146 -23 -275 -109 -320 -214 -13 -29 -25 -82 -28
-118 -4 -56 -1 -75 20 -121 80 -175 296 -234 443 -122 30 22 42 26 75 20 39
-6 41 -5 70 41 33 52 37 78 15 103 -14 15 -13 22 2 61 12 31 17 76 17 154 l1
110 144 233 c124 202 148 235 182 253 21 10 39 25 39 32 -1 6 -23 66 -49 132
l-49 120 -27 -60z m-444 -738 c51 -33 81 -99 77 -167 -14 -212 -269 -328 -375
-171 -69 102 -10 274 116 341 52 28 138 26 182 -3z"/>
<path d="M5660 3552 c-70 -35 -99 -142 -55 -208 16 -24 17 -25 35 -9 15 13 17
22 10 36 -11 20 -13 69 -4 94 12 32 104 62 104 34 0 -6 -10 -52 -21 -101 -25
-106 -24 -108 63 -108 67 0 109 28 129 87 40 122 -133 239 -261 175z m193 -90
c22 -19 22 -70 0 -94 -9 -10 -30 -18 -49 -18 l-32 0 14 58 c24 93 22 92 67 54z"/>
<path d="M1986 3269 c-28 -40 -59 -156 -52 -194 8 -42 23 -45 31 -7 4 15 18
64 31 109 18 57 23 87 16 98 -8 16 -11 15 -26 -6z"/>
<path d="M5536 3268 c-3 -13 -6 -26 -6 -30 0 -3 50 -23 110 -43 121 -40 136
-54 125 -111 -5 -30 -3 -36 17 -43 30 -12 51 13 45 54 -2 17 1 34 8 40 7 5 16
19 19 30 5 19 -8 25 -142 70 -81 28 -152 51 -158 53 -6 2 -14 -7 -18 -20z"/>
<path d="M2770 2255 c-87 -25 -136 -60 -285 -205 -154 -150 -193 -179 -287
-211 -89 -30 -207 -24 -261 13 -47 31 -87 84 -87 114 0 12 21 48 46 80 l45 59
-31 3 c-49 5 -102 -27 -128 -78 -20 -39 -23 -56 -20 -126 4 -65 9 -90 31 -126
54 -92 191 -187 322 -223 83 -22 301 -31 406 -15 253 37 485 168 585 331 20
32 40 59 43 59 3 0 17 -16 30 -35 42 -62 177 -182 258 -229 166 -98 319 -139
513 -139 95 0 144 6 205 22 171 45 308 139 361 247 24 48 26 63 22 133 -5 88
-30 141 -78 166 -29 15 -100 21 -100 9 0 -4 20 -29 45 -55 25 -26 45 -55 45
-64 0 -28 -38 -91 -74 -123 -68 -59 -210 -58 -334 4 -64 31 -101 61 -227 184
-162 158 -220 197 -317 209 -108 14 -203 -17 -304 -97 l-50 -39 -54 49 c-90
81 -213 112 -320 83z"/>
</g>
</svg>
